<svg id="Intuit_Logo_5_" xmlns="http://www.w3.org/2000/svg" width="399.922" height="116.772" viewBox="0 0 399.922 116.772">
  <g id="Group_9" data-name="Group 9">
    <g id="Group_4" data-name="Group 4">
      <g id="Group_3" data-name="Group 3">
        <path id="Path_6" data-name="Path 6" d="M268.553,114.789H257.99c-2.146,0-3.791-1.154-3.952-3.3l-.168-4.13a41.546,41.546,0,0,1-26.244,9.409c-18.48,0-26.067-11.708-26.067-29.539V38.424c0-2.807,1.649-3.8,4.281-3.8H217.4c2.643,0,4.13.821,4.13,3.8V83.765c0,9.08,2.309,15.347,12.214,15.347,6.261,0,14.188-3.461,19.139-7.917V38.424c0-2.807,1.488-3.8,4.12-3.8h11.717c2.644,0,4.132.821,4.132,3.8v71.748C272.847,113.635,271.85,114.789,268.553,114.789Z" fill="#aca8a8"/>
      </g>
    </g>
    <path id="Path_7" data-name="Path 7" d="M0,37.918c0-1.975.992-3.3,2.969-3.3h13.96c1.979,0,3.134,1.156,3.134,3.3v72.746c0,2.971-1.326,4.125-4.125,4.125H4.292c-2.961,0-4.292-1.154-4.292-4.125Z" fill="#aca8a8"/>
    <path id="Path_8" data-name="Path 8" d="M293.494,37.918c0-1.975,1-3.3,2.972-3.3h13.959c1.983,0,3.138,1.156,3.138,3.3v72.746c0,2.971-1.322,4.125-4.131,4.125H297.786c-2.962,0-4.292-1.154-4.292-4.125Z" fill="#aca8a8"/>
    <path id="Path_9" data-name="Path 9" d="M108.52,114.789H96.64c-2.969,0-3.958-1.483-3.958-4.292V65.61c0-9.071-2.471-15.509-12.543-15.509-6.438,0-14.355,3.472-19.47,7.921v52.641c0,2.813-1.156,4.125-3.956,4.125H44.662c-2.476,0-3.963-1.312-3.963-3.959V38.767c0-2.642,1.163-4.125,4.129-4.125H55.549c2.309,0,3.8.657,3.963,3.132l.163,4.4a43.142,43.142,0,0,1,26.74-9.564c18.482,0,26.071,11.549,26.071,29.536V110.5C112.485,113.306,111.5,114.789,108.52,114.789Z" fill="#aca8a8"/>
    <g id="Group_6" data-name="Group 6">
      <g id="Group_5" data-name="Group 5">
        <path id="Path_10" data-name="Path 10" d="M167.333,12.1a12.1,12.1,0,1,0-12.1,12.1A12.1,12.1,0,0,0,167.333,12.1Z" fill="#aca8a8"/>
      </g>
      <path id="Path_11" data-name="Path 11" d="M184.556,34.622c1.979,0,3.135.657,3.135,2.805V49.048a2.992,2.992,0,0,1-3.3,3.135H165.264v58.48c0,2.971-1.319,4.125-4.292,4.125H149.489c-2.971,0-4.288-1.154-4.288-4.125V52.183h-19.13a2.992,2.992,0,0,1-3.3-3.135V37.427c0-2.148,1.154-2.805,3.136-2.805h58.648Z" fill="#aca8a8"/>
    </g>
    <g id="Group_8" data-name="Group 8">
      <g id="Group_7" data-name="Group 7">
        <path id="Path_12" data-name="Path 12" d="M372.114,12.1a12.1,12.1,0,1,0-12.105,12.1A12.106,12.106,0,0,0,372.114,12.1Z" fill="#aca8a8"/>
      </g>
      <path id="Path_13" data-name="Path 13" d="M389.336,34.622c1.975,0,3.129.657,3.129,2.805V49.048a2.99,2.99,0,0,1-3.3,3.135H370.039v58.48c0,2.971-1.315,4.125-4.288,4.125H354.265c-2.972,0-4.288-1.154-4.288-4.125l0-58.48h-19.12a2.994,2.994,0,0,1-3.3-3.135V37.427c0-2.148,1.159-2.805,3.133-2.805h58.655Z" fill="#aca8a8"/>
    </g>
  </g>
  <g id="Group_10" data-name="Group 10">
    <path id="Path_14" data-name="Path 14" d="M394.565,104.618a5.345,5.345,0,1,1-5.387,5.315A5.311,5.311,0,0,1,394.565,104.618Zm0,9.905a4.563,4.563,0,1,0-4.418-4.59A4.408,4.408,0,0,0,394.565,114.523Zm-2.086-7.691h2.412c1.488,0,2.19.586,2.19,1.789a1.605,1.605,0,0,1-1.645,1.7l1.789,2.76h-1.046l-1.7-2.691h-1.031v2.691h-.971v-6.248Zm.97,2.772h1.017c.858,0,1.642-.04,1.642-1.026,0-.831-.711-.957-1.37-.957H393.45V109.6Z" fill="#aca8a8"/>
  </g>
</svg>
